<svg width="106" height="27" viewBox="0 0 106 27" fill="none" xmlns="http://www.w3.org/2000/svg">
<path d="M7.58321 26.544C5.02188 26.544 3.14054 25.898 1.93921 24.606C0.737878 23.314 0.137211 21.172 0.137211 18.18C0.137211 15.8 0.533878 13.2387 1.32721 10.496C2.14321 7.75333 3.43521 5.40733 5.20321 3.458C6.99388 1.486 9.26054 0.499998 12.0032 0.499998C13.7032 0.499998 15.0745 0.873999 16.1172 1.622C17.1599 2.37 17.6812 3.51467 17.6812 5.056C17.6812 6.03067 17.4885 6.80133 17.1032 7.368C16.7179 7.912 16.1172 8.184 15.3012 8.184C14.4852 8.184 13.8392 7.88933 13.3632 7.3C13.7712 7.096 14.1339 6.688 14.4512 6.076C14.7685 5.464 14.9272 4.82933 14.9272 4.172C14.9272 3.56 14.7572 3.06133 14.4172 2.676C14.0999 2.29067 13.5785 2.098 12.8532 2.098C11.6519 2.098 10.5072 2.92533 9.41921 4.58C8.33121 6.212 7.44721 8.27467 6.76721 10.768C6.10988 13.2613 5.78121 15.664 5.78121 17.976C5.78121 19.6987 6.07588 21.0133 6.66521 21.92C7.25454 22.8267 8.31988 23.28 9.86121 23.28C11.1985 23.28 12.4339 22.9853 13.5672 22.396C14.7005 21.8067 15.6752 20.968 16.4912 19.88L17.2732 20.22C16.7065 21.648 15.8679 22.838 14.7572 23.79C13.6465 24.742 12.4565 25.4447 11.1872 25.898C9.91788 26.3287 8.71654 26.544 7.58321 26.544ZM19.7576 26.204C18.6696 26.204 17.7856 25.864 17.1056 25.184C16.4483 24.504 16.1196 23.484 16.1196 22.124C16.1196 21.5573 16.2103 20.8207 16.3916 19.914L18.7036 9H23.5996L21.1516 20.56C21.0836 20.9 21.0496 21.2173 21.0496 21.512C21.0496 22.4413 21.3896 22.906 22.0696 22.906C22.7043 22.906 23.2483 22.6453 23.7016 22.124C24.1549 21.58 24.5176 20.8433 24.7896 19.914L27.1016 9H31.9976L29.5496 20.56C29.4589 20.9 29.4136 21.2627 29.4136 21.648C29.4136 22.1013 29.5156 22.43 29.7196 22.634C29.9463 22.8153 30.3089 22.906 30.8076 22.906C31.4423 22.906 31.9863 22.634 32.4396 22.09C32.9156 21.546 33.2896 20.8207 33.5616 19.914H34.9896C34.1509 22.362 33.1083 24.028 31.8616 24.912C30.6376 25.7733 29.4023 26.204 28.1556 26.204C27.1809 26.204 26.3989 25.932 25.8096 25.388C25.2429 24.844 24.9029 24.0393 24.7896 22.974C24.0189 24.2207 23.2029 25.0707 22.3416 25.524C21.5029 25.9773 20.6416 26.204 19.7576 26.204ZM36.9236 26.204C35.8356 26.204 34.9516 25.864 34.2716 25.184C33.6143 24.504 33.2856 23.484 33.2856 22.124C33.2856 21.5573 33.3763 20.8207 33.5576 19.914L37.1956 2.88L42.2276 2.2L38.3176 20.56C38.227 20.9 38.1816 21.2627 38.1816 21.648C38.1816 22.1013 38.2836 22.43 38.4876 22.634C38.7143 22.8153 39.077 22.906 39.5756 22.906C40.233 22.906 40.845 22.634 41.4116 22.09C41.9783 21.5233 42.3863 20.798 42.6356 19.914H44.0636C43.225 22.362 42.1483 24.028 40.8336 24.912C39.519 25.7733 38.2156 26.204 36.9236 26.204ZM45.9881 26.204C44.9001 26.204 44.0161 25.864 43.3361 25.184C42.6787 24.504 42.3501 23.484 42.3501 22.124C42.3501 21.5573 42.4407 20.8207 42.6221 19.914L44.6621 10.36H43.5401L43.8121 9H44.9341L45.9541 4.308L50.9861 3.628L49.8301 9H51.8701L51.5981 10.36H49.5581L47.3821 20.56C47.2914 20.9 47.2461 21.2627 47.2461 21.648C47.2461 22.1013 47.3481 22.43 47.5521 22.634C47.7787 22.8153 48.1414 22.906 48.6401 22.906C49.2974 22.906 49.9094 22.634 50.4761 22.09C51.0427 21.5233 51.4507 20.798 51.7001 19.914H53.1281C52.2894 22.362 51.2127 24.028 49.8981 24.912C48.5834 25.7733 47.2801 26.204 45.9881 26.204ZM57.3645 7.164C56.6165 7.164 55.9819 6.90333 55.4605 6.382C54.9392 5.86067 54.6785 5.226 54.6785 4.478C54.6785 3.73 54.9392 3.09533 55.4605 2.574C55.9819 2.03 56.6165 1.758 57.3645 1.758C58.1125 1.758 58.7472 2.03 59.2685 2.574C59.8125 3.09533 60.0845 3.73 60.0845 4.478C60.0845 5.226 59.8125 5.86067 59.2685 6.382C58.7472 6.90333 58.1125 7.164 57.3645 7.164ZM55.0525 26.204C53.9645 26.204 53.0805 25.864 52.4005 25.184C51.7432 24.504 51.4145 23.484 51.4145 22.124C51.4145 21.5573 51.5052 20.8207 51.6865 19.914L53.9985 9H58.8945L56.4465 20.56C56.3559 20.9 56.3105 21.2627 56.3105 21.648C56.3105 22.1013 56.4125 22.43 56.6165 22.634C56.8432 22.8153 57.2059 22.906 57.7045 22.906C58.3619 22.906 58.9739 22.634 59.5405 22.09C60.1072 21.5233 60.5152 20.798 60.7645 19.914H62.1925C61.3539 22.362 60.2772 24.028 58.9625 24.912C57.6479 25.7733 56.3445 26.204 55.0525 26.204ZM64.627 26.204C63.3123 26.204 62.281 25.8753 61.533 25.218C60.8076 24.538 60.445 23.5293 60.445 22.192C60.445 21.648 60.5016 21.104 60.615 20.56L63.063 9H67.959L65.511 20.56C65.3976 21.1267 65.341 21.5347 65.341 21.784C65.341 22.532 65.7263 22.906 66.497 22.906C67.5396 22.906 68.503 22.2487 69.387 20.934C70.2936 19.6193 71.019 18.0553 71.563 16.242C72.107 14.4287 72.379 12.8647 72.379 11.55C72.3336 11.6633 72.1863 11.754 71.937 11.822C71.6876 11.8673 71.4723 11.89 71.291 11.89C70.9056 11.89 70.5996 11.7087 70.373 11.346C70.169 10.9833 70.067 10.5867 70.067 10.156C70.067 9.612 70.237 9.17 70.577 8.83C70.9396 8.49 71.4723 8.32 72.175 8.32C72.923 8.32 73.467 8.60333 73.807 9.17C74.147 9.714 74.317 10.4167 74.317 11.278C74.317 13.318 73.9656 15.5053 73.263 17.84C72.5603 20.152 71.4836 22.124 70.033 23.756C68.5823 25.388 66.7803 26.204 64.627 26.204ZM78.9091 26.204C77.6171 26.204 76.5404 25.762 75.6791 24.878C74.8178 23.994 74.3871 22.6113 74.3871 20.73C74.3871 19.0527 74.7158 17.296 75.3731 15.46C76.0531 13.6013 77.0504 12.0373 78.3651 10.768C79.7024 9.476 81.2891 8.83 83.1251 8.83C84.0544 8.83 84.7458 8.98867 85.1991 9.306C85.6524 9.62333 85.8791 10.0427 85.8791 10.564V10.802L86.2531 9H91.1491L88.7011 20.56C88.6104 20.9 88.5651 21.2627 88.5651 21.648C88.5651 22.6227 89.0298 23.11 89.9591 23.11C90.5938 23.11 91.1378 22.8153 91.5911 22.226C92.0671 21.6367 92.4411 20.866 92.7131 19.914H94.1411C93.3024 22.362 92.2598 24.028 91.0131 24.912C89.7891 25.7733 88.5538 26.204 87.3071 26.204C86.3551 26.204 85.5844 25.9433 84.9951 25.422C84.4284 24.878 84.0884 24.096 83.9751 23.076C83.3178 24.0053 82.5811 24.7647 81.7651 25.354C80.9718 25.9207 80.0198 26.204 78.9091 26.204ZM81.1191 22.906C81.6858 22.906 82.2411 22.6453 82.7851 22.124C83.3518 21.58 83.7371 20.8433 83.9411 19.914L85.5731 12.23C85.5731 11.9353 85.4598 11.652 85.2331 11.38C85.0064 11.0853 84.6551 10.938 84.1791 10.938C83.2724 10.938 82.4564 11.4707 81.7311 12.536C81.0058 13.5787 80.4391 14.848 80.0311 16.344C79.6231 17.8173 79.4191 19.1207 79.4191 20.254C79.4191 21.3873 79.5778 22.1127 79.8951 22.43C80.2351 22.7473 80.6431 22.906 81.1191 22.906ZM95.0376 9H99.9336L99.4916 11.108C100.262 10.428 100.954 9.90667 101.566 9.544C102.2 9.18133 102.88 9 103.606 9C104.331 9 104.898 9.24933 105.306 9.748C105.736 10.2467 105.952 10.8473 105.952 11.55C105.952 12.2073 105.736 12.7853 105.306 13.284C104.875 13.7827 104.274 14.032 103.504 14.032C103.005 14.032 102.665 13.9187 102.484 13.692C102.325 13.4427 102.2 13.0913 102.11 12.638C102.042 12.3433 101.974 12.128 101.906 11.992C101.838 11.856 101.713 11.788 101.532 11.788C101.056 11.788 100.648 11.89 100.308 12.094C99.9903 12.2753 99.5709 12.604 99.0496 13.08L96.3296 26H91.4336L95.0376 9Z" fill="white"/>
</svg>
